<svg width="512" height="512" xmlns="http://www.w3.org/2000/svg" stroke-width="0" fill="currentColor" stroke="currentColor">

 <g>
  <path id="svg_1" d="m86.48,31.83c-1.96,4.68 -4.03,10.14 -5.96,16.22c-4.14,13.05 -8.05,28.48 -11.15,43.03c-3.1,14.52 -5.39,28.32 -6.34,37.82c-0.35,3.6 -0.35,5.8 -0.35,7.7l167.92,78.6l-11.4,9c-34.8,27.7 -73,53 -115.1,75.7l33.4,7.8c60,-11.4 93.5,-27.9 163.4,-55.9l3,-1.2l99.4,32.3l0.2,0.1c24,8.8 38.2,9.1 42,7.8c1.9,-0.7 1.4,-0.5 1.6,-1.3c0.2,-0.8 0.2,-3.3 -1.2,-6.9c-2.7,-7.2 -10.1,-17.6 -19.6,-26.7c-9.5,-9.1 -21.2,-17 -31.5,-20.9l-0.3,-0.1l-279.9,-122.6l-0.8,-4.6c-4.6,-24.2 -9.5,-49.13 -27.32,-75.87zm122.72,16.07l21.5,95.6l59.8,26.3c-15.5,-32.1 -33.8,-66.1 -63.1,-108.83l-18.2,-13.07zm-177.2,391.1l0,18l448,0l0,-18l-448,0z"/>
  <rect id="svg_2" height="43" width="488" y="430" x="24" stroke="#000" fill="#fff"/>
  <rect id="svg_4" height="104" width="590" y="435" x="-44" stroke="#000" fill="#fff"/>
 </g>
</svg>